<?xml version="1.0" encoding="UTF-8"?> <svg xmlns="http://www.w3.org/2000/svg" xmlns:xlink="http://www.w3.org/1999/xlink" width="1508px" height="37px" viewBox="0 0 1508 37"><!-- Generator: Sketch 58 (84663) - https://sketch.com --><title>COBYJAMES-full</title><desc>Created with Sketch.</desc><g id="Page-1" stroke="none" stroke-width="1" fill="none" fill-rule="evenodd" opacity="0.922386533"><g id="r" transform="translate(-292.000000, -100.000000)" fill="#FFFFFF" fill-rule="nonzero"><path d="M327.2,113.2 L337.75,113.25 L337.727188,112.02504 C337.649679,108.97337 337.328788,105.35303 335,103.2 C333,101.35 330.5,100.95 328,100.55 L322.664286,100.349271 C320.292857,100.265306 317.921429,100.2 315.55,100.2 C311.45,100.2 307.35,100.45 303.3,100.75 L302.408051,100.900564 C300.674293,101.216469 297.415385,102.024359 295.2,104.65 C293.7,106.55 293.35,108.25 293.05,110.6 L292.849271,113.923178 C292.765306,115.394898 292.7,116.864286 292.7,118.35 C292.7,120.85 292.9,123.35 293.1,125.8 L293.179332,126.43473 C293.51941,129.039643 294.016667,131.155556 296.1,133.1 C298.35,135.2 301.6,135.7 304.85,136.2 C309,136.35 313.15,136.45 317.3,136.45 C321.1,136.45 324.9,136.3 328.7,136.05 L329.697668,135.899125 C331.673469,135.587755 333.528571,135.171429 335.2,133.8 C337.7,131.8 338,128.9 338.1,125.85 C338.15,124.75 338.2,123.7 338.2,122.65 L327.45,122.65 L327.39,123.4316 C327.302,124.47 327.15,125.47 326.55,126.15 C325.45,127.45 322.95,127.5 322.75,127.55 L309.8,127.55 L309.245536,127.504082 C308.281633,127.414286 306.407143,127.139286 305.15,126 C303.75,124.75 303.7,122.65 303.65,120.7 L303.65,118.1 C303.65,115.5 303.75,113.4 304.05,112.35 C304.85,109.6 307.35,109.3 308.25,109.2 C308.8,109.15 309.4,109.1 309.95,109.1 C312.2,109 314.35,108.95 316.55,108.95 C318.65,108.95 320.75,109.05 322.8,109.15 L323.514815,109.225463 C324.686111,109.359722 325.741667,109.575 326.45,110.45 C327.2,111.35 327.2,112.15 327.2,113.2 Z M445.1,110.6 L444.75,120.95 L444.754669,122.118477 C444.79708,126.3677 445.211702,131.201064 449.1,133.9 C451.85,135.8 454.9,136 458.05,136.2 C462.1,136.3 466.1,136.4 470.15,136.4 C473.7,136.4 477.25,136.3 480.75,136.25 L481.757297,136.167851 C485.350776,135.851918 489.031429,135.217143 491.5,132.2 C493.25,130.05 493.6,128 493.95,125.4 C494.05,123.7 494.2,122.05 494.25,120.4 C494.35,117.85 494.25,115.35 494.15,112.8 L494.096776,111.960631 C493.942593,109.749383 493.661111,107.744444 492.55,105.7 C490.620513,102.289744 487.482939,101.3762 485.81159,101.043983 L485.3,100.95 C484.75,100.85 484.2,100.75 483.65,100.7 C478.5,100.45 473.4,100.25 468.3,100.25 C463.95,100.25 459.65,100.45 455.35,100.7 L454.580176,100.814062 C452.822656,101.0875 451.31875,101.4375 449.7,102.4 C447.2,103.85 445.9,106.2 445.35,108.95 C445.25,109.5 445.15,110.05 445.1,110.6 Z M476.95,127.65 L462.55,127.65 L461.878858,127.589326 C459.278402,127.333432 457.680769,126.903846 456.85,125.75 C456.05,124.6 455.85,122.45 455.75,119.45 L455.800518,117.092732 C455.841551,115.56482 455.897368,114.405263 456,113.55 L456.070845,113.185277 C456.147595,112.81465 456.283382,112.261006 456.518058,111.763448 L456.6,111.6 C456.7375,111.325 457.001042,110.881944 457.583189,110.424884 L457.75,110.3 C458.75,109.55 459.7,109.25 462.15,109.1 L477.25,109.1 L477.97335,109.155826 C480.402422,109.363971 482.175,109.797059 482.95,112.35 C483.2,113.1 483.25,113.7 483.3,114.5 L483.3,122.15 L483.229005,122.712101 C483.049481,124.026471 482.847059,124.688235 482.45,125.35 C481.35,127.25 479.25,127.45 476.95,127.65 Z M601.9,136 L634.1,136 L634.974964,136.023143 C639.510035,136.127682 641.976471,135.911765 644,134.5 C644.85,133.9 645.4,133.35 645.65,133 L645.866897,132.743516 C646.839834,131.550773 647.75,129.815517 647.75,126.65 C647.75,122.573529 646.855061,120.852163 645.339482,119.702948 L645.2,119.6 C643.75,118.5 642.1,118.25 640.35,118 L640.932749,117.836459 C642.009467,117.52929 643.119231,117.161538 644.05,116.4 C645.5,115.25 646.4,113.6 646.4,109.7 C646.4,106.171667 645.231944,104.185167 643.979789,103.108193 L643.85,103 C641.3,100.75 637.7,100.7 634.5,100.7 L601.9,100.7 L601.9,136 Z M612.55,121.65 L632,121.65 L632.425799,121.637943 C633.899527,121.602647 635.195652,121.676087 636.2,123 C636.6,123.6 636.85,124.15 636.85,124.95 C636.85,125.55 636.7,125.95 636.65,126.15 C636.15,127.5 635.1,127.8 633.7,128.05 L612.55,128.05 L612.55,121.65 Z M612.6,108.4 L631.25,108.4 L631.874636,108.422303 C633.087755,108.476531 634.085714,108.635714 634.9,109.75 C635.3,110.25 635.55,110.9 635.55,111.55 C635.55,112.5 635.1,113.15 634.9,113.4 C633.95,114.7 632.6,114.65 631,114.6 L612.6,114.6 L612.6,108.4 Z M765.5,100.7 L751.85,100.7 L771.9,123.65 L771.9,136 L782.95,136 L782.95,123.65 L803.35,100.7 L789.25,100.7 L777.35,115.1 L765.5,100.7 Z M1148.7,121.05 L1138.05,121.05 L1138.03432,122.307009 C1137.98727,127.845816 1138.31023,130.863636 1140.5,133.1 C1142.6,135.2 1145.05,135.65 1147.85,136.1 C1150.3,136.25 1152.75,136.4 1155.15,136.4 C1158.05,136.4 1160.85,136.25 1163.7,136.1 L1164.7253,135.9493 C1167.77,135.4885 1170.515,134.89 1172.45,132.55 C1173.95,130.7 1174.3,128.85 1174.65,126.65 L1174.9,120.4 L1174.9,100.7 L1163.95,100.7 L1163.94964,123.608341 C1163.93578,124.539333 1163.75667,126.376667 1161.85,127.2 C1160.85,127.65 1159.6,127.7 1159.3,127.75 C1158.3,127.8 1157.3,127.85 1156.35,127.85 L1155.67221,127.8464 C1152.56711,127.811556 1150.28667,127.506667 1149.4,126.2 C1148.95,125.55 1148.75,124.8 1148.7,122.85 L1148.7,121.05 Z M1299.25,100.7 L1279.65,136 L1291.55,136 L1294.9,129.7 L1317.65,129.7 L1320.95,136 L1333.2,136 L1313.3,100.7 L1299.25,100.7 Z M1306.4,108.5 L1313.7,122.25 L1298.85,122.25 L1306.4,108.5 Z M1438.45,100.7 L1438.45,136 L1448.8,136 L1448.8,109.15 L1464.2,136 L1472.85,136 L1488.3,109.3 L1488.3,136 L1498.8,136 L1498.8,100.7 L1481.55,100.7 L1468.7,123.85 L1455.9,100.7 L1438.45,100.7 Z M1607.2,100.7 L1607.2,136 L1646.65,136 L1646.65,128 L1617.95,128 L1617.95,121.8 L1645.1,121.8 L1645.1,114.4 L1617.95,114.4 L1617.95,108.5 L1646.65,108.5 L1646.65,100.7 L1607.2,100.7 Z M1754.14977,124.4 L1765.2,124.45 L1765.20274,124.962209 C1765.21097,125.45439 1765.2439,125.889781 1765.37558,126.298011 L1765.45,126.5 C1765.85,127.65 1766.9,128.1 1769.2,128.3 C1771.45,128.4 1773.65,128.5 1775.9,128.55 C1778.3,128.6 1780.7,128.5 1783.15,128.45 L1783.83889,128.472222 C1784.48333,128.483333 1785.41667,128.45 1786.15,128.15 C1787.25,127.75 1788.2,126.65 1788.2,125.45 L1788.19421,125.276157 C1788.17222,124.948611 1788.075,124.441667 1787.7,123.9 C1786.85,122.7 1785.75,122.75 1783.25,122.4 L1777.40264,122.292773 C1774.15703,122.227344 1770.91875,122.1375 1767.7,121.95 C1766.05,121.85 1764.4,121.7 1762.75,121.6 C1762.25,121.5 1761.7,121.45 1761.2,121.35 L1760.91781,121.306111 C1759.98361,121.14764 1757.86786,120.651786 1756.35,119 C1755.28793,117.841379 1754.31908,115.797146 1754.25353,112.417262 L1754.2516,111.809674 C1754.26322,110.890174 1754.35909,107.677273 1755.15,105.7 C1755.5,104.85 1756,104.1 1756.6,103.45 C1758.65,101.25 1761.35,100.9 1764.3,100.55 C1768.15,100.4 1772,100.25 1775.85,100.25 C1780.1,100.25 1784.35,100.5 1788.6,100.7 L1790.84685,101.045365 C1791.81869,101.211352 1793.95357,101.7375 1795.65,103.3 C1798.1,105.55 1798.1,108.7 1798,111.8 L1787.3,111.75 L1787.19263,111.321365 C1786.58719,109.011265 1785.99167,108.683333 1783.3,108.4 C1780.7,108.25 1778.05,108.15 1775.45,108.15 C1773.9125,108.15 1772.40313,108.20625 1770.87969,108.255469 L1769.35,108.3 C1768,108.35 1766.75,108.4 1765.9,109.5 C1765.75,109.7 1765.3,110.35 1765.3,111.1 C1765.3,111.85 1765.7,112.45 1765.9,112.65 C1766.85,113.85 1768.05,113.9 1769.4,114 L1790.6,114.75 C1793.5,115.05 1794.6,115.45 1795.85,116.35 C1797.65,117.65 1799.25,119.95 1799.25,125.1 C1799.25,129.1 1798.55,131 1797.45,132.55 C1797,133.15 1796.6,133.6 1796,134.05 C1794.35,135.25 1792.2,135.6 1790,135.95 C1785.65,136.2 1781.35,136.4 1777,136.4 C1772.3,136.4 1767.6,136.1 1762.85,135.85 L1762.25694,135.759635 C1760.06458,135.414931 1757.70417,134.891667 1756.1,133.15 C1754.1,131 1754.14977,127.05 1754.14977,124.4 Z" id="COBYJAMES"></path></g></g></svg> 